<svg id="Flat" height="512" viewBox="0 0 64 64" width="512" xmlns="http://www.w3.org/2000/svg"><g id="Color_copy"><g><path d="m60.66 34.68-3.36 16.8-1.3 6.52-6.56-.94-.44-.06.24-1.35 3.76-21.65-4.01-10.39-1.99 16.39 2 18-.57.24c-4.24 1.82-8.81 2.76-13.43 2.76l-3-5-3 5c-2.31 0-4.61-.24-6.86-.7s-4.45-1.15-6.57-2.06l-.57-.24 2-18-1.99-16.39-4.01 10.39 3.76 21.65.24 1.35-.44.06-6.56.94-4.66-23.32c-.22-1.1-.13-2.24.26-3.28l7.34-19.57c.67-1.78 2.14-3.14 3.97-3.66l5.51-1.57 5.58-1.6.5-.34c1.63-1.08 3.54-1.66 5.5-1.66s3.87.58 5.5 1.66l.5.34 11.09 3.17.09-.04c1.78.55 3.2 1.89 3.86 3.63l7.36 19.64c.39 1.04.48 2.18.26 3.28z" fill="#48cae4"/><path d="m26 5 .5-.34c1.63-1.08 3.54-1.66 5.5-1.66s3.87.58 5.5 1.66l.5.34 2 14-8 17-8-17z" fill="#00b4d8"/><path d="m31.882 6c-2.202 0-4.339.502-6.225 1.401l-1.657 11.599 8 17 8-17-1.641-11.484c-1.944-.978-4.178-1.516-6.477-1.516z" fill="#0096c7"/><path d="m54.05 45.06 1.57-8.91c.25-1.41.11-2.86-.39-4.2l-4.92-13.12c-.19-.5-.66-.83-1.2-.83-.63 0-1.17.47-1.26 1.1l-2.55 18.72c-.2 1.45-.24 2.91-.12 4.37l.43 5.14c.01.12.02.24.02.37 0 1.07-.65 2.06-1.68 2.82-4.11 3.05-9.95-.18-9.95-5.29v-14.23h-4v13.94c0 2.4-1.33 4.68-3.54 5.64-3.85 1.68-6.26-1.94-5.9-6.33.1-1.24.15-2.48.15-3.72 0-2.26-.16-4.51-.5-6.74l-2.46-16.21c-.6-3.98.43-7.89 2.67-10.98l-5.51 1.57c-1.83.52-3.3 1.88-3.97 3.66l-7.34 19.57c-.39 1.04-.48 2.18-.26 3.28l4.66 23.32 6.56-.94.44-.06-.24-1.35-3.76-21.65 4.01-10.39 1.99 16.39-2 18 .57.24c2.12.91 4.32 1.6 6.57 2.06s4.55.7 6.86.7l3-5 3 5c4.62 0 9.19-.94 13.43-2.76l.57-.24-2-18 1.99-16.39 4.01 10.39-3.76 21.65-.24 1.35.44.06 6.56.94 1.3-6.52c-2.33-1.15-3.73-3.74-3.25-6.42z" fill="#00b4d8"/><path d="m26 5-10 9 5 2-3 6 14 14-1.656-4.022c-3.515-8.535-5.002-17.77-4.344-26.978z" fill="#00b4d8"/><path d="m38 5 10 9-5 2 3 6-14 14 1.656-4.022c3.515-8.535 5.002-17.77 4.344-26.978z" fill="#00b4d8"/><g><g><path d="m34 14h-4l-1-5h6z" fill="#f9dbaf"/><path d="m30.917 11.083 1.083-1.083 2.333 2.333.667-3.333h-6l1 5h4l.203-1.014c-1.364-.07-2.574-.797-3.286-1.903z" fill="#edb88e"/><path d="m36 29-4 7-4-7 2-15h4z" fill="#f9dbaf"/><path d="m32 25v-7c0-1.36.911-2.495 2.152-2.863l-.152-1.137h-4l-2 15 4 7 3.563-6.235c-2.056-.62-3.563-2.507-3.563-4.765z" fill="#edb88e"/></g><path d="m28 13-3-5 1-3 6 4z" fill="#fcf2ad"/><path d="m25 8 3 5 4-4-1.2-.8-.11.11c-1.07 1.07-2.7 1.12-3.83.3l-.86-3.61z" fill="#f9dbaf"/><path d="m36 13 3-5-1-3-6 4z" fill="#fcf2ad"/><path d="m39 8-3 5-4-4 1.2-.8.11.11c1.07 1.07 2.7 1.12 3.83.3l.86-3.61z" fill="#f9dbaf"/></g><g fill="#ade8f4"><path d="m38 5 8 7-4 2 2 6-12 16 1.656-4.022c3.515-8.535 5.002-17.77 4.344-26.978z"/><circle cx="54" cy="54" r="1"/><circle cx="36" cy="41" r="1"/><circle cx="36" cy="47" r="1"/><circle cx="10" cy="54" r="1"/></g><path d="m43.999 57c-.48 0-.904-.347-.985-.836l-1-6c-.091-.544.277-1.06.822-1.15.55-.096 1.06.278 1.151.822l1 6c.091.544-.277 1.06-.822 1.15-.056.01-.112.014-.166.014z" fill="#00b4d8"/><path d="m20.001 57c-.054 0-.11-.004-.166-.014-.544-.091-.913-.606-.822-1.15l1-6c.091-.545.604-.918 1.151-.822.544.091.913.606.822 1.15l-1 6c-.081.489-.505.836-.985.836z" fill="#0096c7"/><path d="m44.165 56.986c.544-.091.913-.606.822-1.15l-.904-5.422c-.045.035-.086.072-.133.106-.551.409-1.134.697-1.729.89l.792 4.754c.082.489.506.836.986.836.054 0 .11-.004.166-.014z" fill="#0096c7"/><path d="m31 34.5v23.167l1-1.667v-20z" fill="#0096c7"/><path d="m26 5-8 7 4 2-2 6 12 16-1.656-4.022c-3.515-8.535-5.002-17.77-4.344-26.978z" fill="#ade8f4"/></g></g></svg>